<?xml version="1.0" encoding="UTF-8"?>
<svg id="Layer_1" data-name="Layer 1" xmlns="http://www.w3.org/2000/svg" viewBox="0 0 377.87 347.58">
  <defs>
    <style>
      .cls-1 {
        fill: #34b080;
      }
    </style>
  </defs>
  <g id="p1TyYO">
    <path class="cls-1" d="M154.2,211.57c-35.21-34.4-68.39-71.02-103.88-105.16l96.8,173.21c5.26,9.01,18.37,10.12,25.07,2.13L377.87,9.71c-.29,2.45-1.62,4.98-2.6,7.27-12.8,30.03-27.84,59.22-40.8,89.19,28.97,70.14,9.77,151.17-47.84,200.13-82.99,70.53-209.83,47.79-263.68-46.2C-24.9,176.57,4.67,70.26,87.56,22.79,163.68-20.82,262.52-.2,313.73,70.67l-154.51,144.37c-2.46,1.18-3.6-2.07-5.03-3.47Z"/>
  </g>
</svg>